<svg xmlns="http://www.w3.org/2000/svg" viewBox="0 0 400 52"><g fill="#e6612d"><rect x="0" y="24.42" width="2.8" height="3.17" rx="1.4"/><rect x="5" y="24.42" width="2.8" height="3.17" rx="1.4"/><rect x="10" y="24.47" width="2.8" height="3.06" rx="1.4"/><rect x="15" y="23.40" width="2.8" height="5.19" rx="1.4"/><rect x="20" y="24.47" width="2.8" height="3.06" rx="1.4"/><rect x="25" y="24.47" width="2.8" height="3.06" rx="1.4"/><rect x="30" y="24.48" width="2.8" height="3.03" rx="1.4"/><rect x="35" y="24.48" width="2.8" height="3.03" rx="1.4"/><rect x="40" y="24.49" width="2.8" height="3.02" rx="1.4"/><rect x="45" y="23.51" width="2.8" height="4.98" rx="1.4"/><rect x="50" y="12.46" width="2.8" height="27.07" rx="1.4"/><rect x="55" y="18.15" width="2.8" height="15.70" rx="1.4"/><rect x="60" y="13.95" width="2.8" height="24.09" rx="1.4"/><rect x="65" y="13.50" width="2.8" height="25.00" rx="1.4"/><rect x="70" y="11.00" width="2.8" height="29.99" rx="1.4"/><rect x="75" y="12.36" width="2.8" height="27.28" rx="1.4"/><rect x="80" y="2.84" width="2.8" height="46.31" rx="1.4"/><rect x="85" y="5.25" width="2.8" height="41.49" rx="1.4"/><rect x="90" y="17.53" width="2.8" height="16.95" rx="1.4"/><rect x="95" y="3.32" width="2.8" height="45.36" rx="1.4"/><rect x="100" y="12.81" width="2.8" height="26.38" rx="1.4"/><rect x="105" y="14.66" width="2.8" height="22.69" rx="1.4"/><rect x="110" y="23.85" width="2.8" height="4.29" rx="1.4"/><rect x="115" y="22.97" width="2.8" height="6.06" rx="1.4"/><rect x="120" y="22.13" width="2.8" height="7.75" rx="1.4"/><rect x="125" y="16.21" width="2.8" height="19.59" rx="1.4"/><rect x="130" y="12.26" width="2.8" height="27.48" rx="1.4"/><rect x="135" y="15.74" width="2.8" height="20.51" rx="1.4"/><rect x="140" y="10.93" width="2.8" height="30.14" rx="1.4"/><rect x="145" y="13.12" width="2.8" height="25.76" rx="1.4"/><rect x="150" y="17.69" width="2.8" height="16.62" rx="1.4"/><rect x="155" y="11.39" width="2.8" height="29.22" rx="1.4"/><rect x="160" y="17.54" width="2.8" height="16.91" rx="1.4"/><rect x="165" y="8.34" width="2.8" height="35.32" rx="1.4"/><rect x="170" y="2.08" width="2.8" height="47.84" rx="1.4"/><rect x="175" y="16.62" width="2.8" height="18.76" rx="1.4"/><rect x="180" y="20.14" width="2.8" height="11.72" rx="1.4"/><rect x="185" y="22.64" width="2.8" height="6.72" rx="1.4"/><rect x="190" y="21.07" width="2.8" height="9.86" rx="1.4"/><rect x="195" y="10.17" width="2.8" height="31.66" rx="1.4"/><rect x="200" y="11.80" width="2.8" height="28.40" rx="1.4"/><rect x="205" y="21.40" width="2.8" height="9.20" rx="1.4"/><rect x="210" y="24.09" width="2.8" height="3.83" rx="1.4"/><rect x="215" y="17.01" width="2.8" height="17.99" rx="1.4"/><rect x="220" y="17.79" width="2.8" height="16.42" rx="1.4"/><rect x="225" y="17.39" width="2.8" height="17.22" rx="1.4"/><rect x="230" y="16.13" width="2.8" height="19.75" rx="1.4"/><rect x="235" y="21.99" width="2.8" height="8.01" rx="1.4"/><rect x="240" y="23.79" width="2.8" height="4.41" rx="1.4"/><rect x="245" y="24.22" width="2.8" height="3.56" rx="1.4"/><rect x="250" y="22.81" width="2.8" height="6.38" rx="1.4"/><rect x="255" y="18.95" width="2.8" height="14.09" rx="1.4"/><rect x="260" y="18.04" width="2.8" height="15.92" rx="1.4"/><rect x="265" y="17.75" width="2.8" height="16.50" rx="1.4"/><rect x="270" y="17.78" width="2.8" height="16.44" rx="1.4"/><rect x="275" y="4.07" width="2.8" height="43.86" rx="1.4"/><rect x="280" y="2.00" width="2.8" height="48.00" rx="1.4"/><rect x="285" y="17.02" width="2.8" height="17.97" rx="1.4"/><rect x="290" y="14.49" width="2.8" height="23.03" rx="1.4"/><rect x="295" y="13.58" width="2.8" height="24.85" rx="1.4"/><rect x="300" y="20.74" width="2.8" height="10.52" rx="1.4"/><rect x="305" y="19.11" width="2.8" height="13.78" rx="1.4"/><rect x="310" y="16.66" width="2.8" height="18.69" rx="1.4"/><rect x="315" y="16.65" width="2.8" height="18.70" rx="1.4"/><rect x="320" y="15.23" width="2.8" height="21.54" rx="1.4"/><rect x="325" y="16.72" width="2.8" height="18.55" rx="1.4"/><rect x="330" y="17.28" width="2.8" height="17.44" rx="1.4"/><rect x="335" y="19.30" width="2.8" height="13.40" rx="1.4"/><rect x="340" y="9.69" width="2.8" height="32.63" rx="1.4"/><rect x="345" y="6.78" width="2.8" height="38.44" rx="1.4"/><rect x="350" y="20.24" width="2.8" height="11.51" rx="1.4"/><rect x="355" y="9.68" width="2.8" height="32.65" rx="1.4"/><rect x="360" y="6.06" width="2.8" height="39.87" rx="1.4"/><rect x="365" y="19.45" width="2.8" height="13.10" rx="1.4"/><rect x="370" y="20.65" width="2.8" height="10.70" rx="1.4"/><rect x="375" y="22.05" width="2.8" height="7.89" rx="1.4"/><rect x="380" y="23.95" width="2.8" height="4.10" rx="1.4"/><rect x="385" y="24.34" width="2.8" height="3.31" rx="1.4"/><rect x="390" y="24.48" width="2.8" height="3.04" rx="1.4"/><rect x="395" y="24.22" width="2.8" height="3.55" rx="1.4"/></g></svg>