<svg xmlns="http://www.w3.org/2000/svg" viewBox="0 0 400 52"><g fill="#e6612d"><rect x="0" y="24.50" width="2.8" height="3.01" rx="1.4"/><rect x="5" y="24.45" width="2.8" height="3.09" rx="1.4"/><rect x="10" y="23.55" width="2.8" height="4.89" rx="1.4"/><rect x="15" y="24.33" width="2.8" height="3.34" rx="1.4"/><rect x="20" y="24.47" width="2.8" height="3.05" rx="1.4"/><rect x="25" y="24.43" width="2.8" height="3.14" rx="1.4"/><rect x="30" y="24.49" width="2.8" height="3.03" rx="1.4"/><rect x="35" y="24.48" width="2.8" height="3.04" rx="1.4"/><rect x="40" y="24.49" width="2.8" height="3.02" rx="1.4"/><rect x="45" y="17.88" width="2.8" height="16.24" rx="1.4"/><rect x="50" y="16.00" width="2.8" height="20.00" rx="1.4"/><rect x="55" y="16.10" width="2.8" height="19.80" rx="1.4"/><rect x="60" y="10.38" width="2.8" height="31.25" rx="1.4"/><rect x="65" y="6.77" width="2.8" height="38.46" rx="1.4"/><rect x="70" y="16.77" width="2.8" height="18.47" rx="1.4"/><rect x="75" y="20.26" width="2.8" height="11.48" rx="1.4"/><rect x="80" y="21.11" width="2.8" height="9.78" rx="1.4"/><rect x="85" y="21.89" width="2.8" height="8.23" rx="1.4"/><rect x="90" y="15.51" width="2.8" height="20.98" rx="1.4"/><rect x="95" y="11.81" width="2.8" height="28.37" rx="1.4"/><rect x="100" y="12.16" width="2.8" height="27.69" rx="1.4"/><rect x="105" y="15.63" width="2.8" height="20.75" rx="1.4"/><rect x="110" y="16.37" width="2.8" height="19.26" rx="1.4"/><rect x="115" y="22.00" width="2.8" height="8.01" rx="1.4"/><rect x="120" y="14.52" width="2.8" height="22.97" rx="1.4"/><rect x="125" y="2.02" width="2.8" height="47.96" rx="1.4"/><rect x="130" y="2.00" width="2.8" height="48.00" rx="1.4"/><rect x="135" y="20.23" width="2.8" height="11.55" rx="1.4"/><rect x="140" y="20.23" width="2.8" height="11.54" rx="1.4"/><rect x="145" y="23.32" width="2.8" height="5.37" rx="1.4"/><rect x="150" y="22.97" width="2.8" height="6.06" rx="1.4"/><rect x="155" y="22.95" width="2.8" height="6.11" rx="1.4"/><rect x="160" y="21.85" width="2.8" height="8.30" rx="1.4"/><rect x="165" y="8.93" width="2.8" height="34.13" rx="1.4"/><rect x="170" y="6.49" width="2.8" height="39.02" rx="1.4"/><rect x="175" y="22.96" width="2.8" height="6.08" rx="1.4"/><rect x="180" y="19.90" width="2.8" height="12.21" rx="1.4"/><rect x="185" y="16.99" width="2.8" height="18.01" rx="1.4"/><rect x="190" y="17.49" width="2.8" height="17.01" rx="1.4"/><rect x="195" y="22.42" width="2.8" height="7.16" rx="1.4"/><rect x="200" y="22.41" width="2.8" height="7.19" rx="1.4"/><rect x="205" y="17.75" width="2.8" height="16.50" rx="1.4"/><rect x="210" y="18.49" width="2.8" height="15.01" rx="1.4"/><rect x="215" y="19.46" width="2.8" height="13.08" rx="1.4"/><rect x="220" y="19.56" width="2.8" height="12.88" rx="1.4"/><rect x="225" y="17.51" width="2.8" height="16.98" rx="1.4"/><rect x="230" y="17.63" width="2.8" height="16.75" rx="1.4"/><rect x="235" y="14.85" width="2.8" height="22.29" rx="1.4"/><rect x="240" y="19.91" width="2.8" height="12.19" rx="1.4"/><rect x="245" y="15.33" width="2.8" height="21.34" rx="1.4"/><rect x="250" y="11.48" width="2.8" height="29.04" rx="1.4"/><rect x="255" y="12.52" width="2.8" height="26.95" rx="1.4"/><rect x="260" y="20.91" width="2.8" height="10.17" rx="1.4"/><rect x="265" y="18.69" width="2.8" height="14.62" rx="1.4"/><rect x="270" y="18.68" width="2.8" height="14.65" rx="1.4"/><rect x="275" y="19.55" width="2.8" height="12.90" rx="1.4"/><rect x="280" y="18.34" width="2.8" height="15.33" rx="1.4"/><rect x="285" y="18.82" width="2.8" height="14.37" rx="1.4"/><rect x="290" y="21.34" width="2.8" height="9.32" rx="1.4"/><rect x="295" y="20.75" width="2.8" height="10.51" rx="1.4"/><rect x="300" y="17.13" width="2.8" height="17.75" rx="1.4"/><rect x="305" y="23.47" width="2.8" height="5.06" rx="1.4"/><rect x="310" y="21.43" width="2.8" height="9.14" rx="1.4"/><rect x="315" y="13.57" width="2.8" height="24.87" rx="1.4"/><rect x="320" y="16.23" width="2.8" height="19.54" rx="1.4"/><rect x="325" y="19.78" width="2.8" height="12.44" rx="1.4"/><rect x="330" y="10.58" width="2.8" height="30.83" rx="1.4"/><rect x="335" y="15.13" width="2.8" height="21.74" rx="1.4"/><rect x="340" y="21.06" width="2.8" height="9.88" rx="1.4"/><rect x="345" y="22.48" width="2.8" height="7.04" rx="1.4"/><rect x="350" y="23.62" width="2.8" height="4.76" rx="1.4"/><rect x="355" y="21.86" width="2.8" height="8.28" rx="1.4"/><rect x="360" y="24.10" width="2.8" height="3.80" rx="1.4"/><rect x="365" y="24.45" width="2.8" height="3.10" rx="1.4"/><rect x="370" y="24.48" width="2.8" height="3.04" rx="1.4"/><rect x="375" y="24.49" width="2.8" height="3.03" rx="1.4"/><rect x="380" y="24.49" width="2.8" height="3.01" rx="1.4"/><rect x="385" y="24.47" width="2.8" height="3.05" rx="1.4"/><rect x="390" y="24.37" width="2.8" height="3.25" rx="1.4"/><rect x="395" y="24.49" width="2.8" height="3.03" rx="1.4"/></g></svg>