<svg xmlns="http://www.w3.org/2000/svg" viewBox="0 0 400 52"><g fill="#e6612d"><rect x="0" y="24.40" width="2.8" height="3.20" rx="1.4"/><rect x="5" y="24.48" width="2.8" height="3.04" rx="1.4"/><rect x="10" y="24.48" width="2.8" height="3.04" rx="1.4"/><rect x="15" y="24.49" width="2.8" height="3.02" rx="1.4"/><rect x="20" y="24.50" width="2.8" height="3.01" rx="1.4"/><rect x="25" y="24.49" width="2.8" height="3.02" rx="1.4"/><rect x="30" y="24.49" width="2.8" height="3.01" rx="1.4"/><rect x="35" y="24.49" width="2.8" height="3.02" rx="1.4"/><rect x="40" y="24.50" width="2.8" height="3.01" rx="1.4"/><rect x="45" y="24.50" width="2.8" height="3.01" rx="1.4"/><rect x="50" y="24.23" width="2.8" height="3.54" rx="1.4"/><rect x="55" y="16.28" width="2.8" height="19.45" rx="1.4"/><rect x="60" y="16.25" width="2.8" height="19.50" rx="1.4"/><rect x="65" y="20.38" width="2.8" height="11.24" rx="1.4"/><rect x="70" y="10.91" width="2.8" height="30.18" rx="1.4"/><rect x="75" y="5.04" width="2.8" height="41.92" rx="1.4"/><rect x="80" y="18.20" width="2.8" height="15.61" rx="1.4"/><rect x="85" y="19.20" width="2.8" height="13.60" rx="1.4"/><rect x="90" y="21.61" width="2.8" height="8.78" rx="1.4"/><rect x="95" y="19.44" width="2.8" height="13.13" rx="1.4"/><rect x="100" y="6.84" width="2.8" height="38.31" rx="1.4"/><rect x="105" y="10.66" width="2.8" height="30.68" rx="1.4"/><rect x="110" y="21.47" width="2.8" height="9.06" rx="1.4"/><rect x="115" y="19.69" width="2.8" height="12.61" rx="1.4"/><rect x="120" y="17.37" width="2.8" height="17.27" rx="1.4"/><rect x="125" y="24.26" width="2.8" height="3.47" rx="1.4"/><rect x="130" y="24.43" width="2.8" height="3.14" rx="1.4"/><rect x="135" y="24.07" width="2.8" height="3.86" rx="1.4"/><rect x="140" y="24.20" width="2.8" height="3.61" rx="1.4"/><rect x="145" y="24.32" width="2.8" height="3.37" rx="1.4"/><rect x="150" y="23.70" width="2.8" height="4.60" rx="1.4"/><rect x="155" y="14.42" width="2.8" height="23.16" rx="1.4"/><rect x="160" y="15.57" width="2.8" height="20.87" rx="1.4"/><rect x="165" y="23.10" width="2.8" height="5.80" rx="1.4"/><rect x="170" y="15.79" width="2.8" height="20.43" rx="1.4"/><rect x="175" y="23.06" width="2.8" height="5.87" rx="1.4"/><rect x="180" y="22.78" width="2.8" height="6.43" rx="1.4"/><rect x="185" y="16.95" width="2.8" height="18.09" rx="1.4"/><rect x="190" y="20.50" width="2.8" height="11.01" rx="1.4"/><rect x="195" y="22.30" width="2.8" height="7.40" rx="1.4"/><rect x="200" y="18.30" width="2.8" height="15.40" rx="1.4"/><rect x="205" y="19.08" width="2.8" height="13.84" rx="1.4"/><rect x="210" y="20.15" width="2.8" height="11.70" rx="1.4"/><rect x="215" y="8.48" width="2.8" height="35.04" rx="1.4"/><rect x="220" y="2.00" width="2.8" height="48.00" rx="1.4"/><rect x="225" y="16.36" width="2.8" height="19.28" rx="1.4"/><rect x="230" y="23.64" width="2.8" height="4.71" rx="1.4"/><rect x="235" y="21.41" width="2.8" height="9.19" rx="1.4"/><rect x="240" y="22.43" width="2.8" height="7.14" rx="1.4"/><rect x="245" y="22.79" width="2.8" height="6.42" rx="1.4"/><rect x="250" y="17.38" width="2.8" height="17.25" rx="1.4"/><rect x="255" y="18.42" width="2.8" height="15.16" rx="1.4"/><rect x="260" y="18.46" width="2.8" height="15.09" rx="1.4"/><rect x="265" y="22.58" width="2.8" height="6.84" rx="1.4"/><rect x="270" y="16.50" width="2.8" height="19.01" rx="1.4"/><rect x="275" y="17.85" width="2.8" height="16.30" rx="1.4"/><rect x="280" y="22.54" width="2.8" height="6.93" rx="1.4"/><rect x="285" y="20.17" width="2.8" height="11.66" rx="1.4"/><rect x="290" y="20.02" width="2.8" height="11.96" rx="1.4"/><rect x="295" y="20.81" width="2.8" height="10.37" rx="1.4"/><rect x="300" y="21.18" width="2.8" height="9.65" rx="1.4"/><rect x="305" y="23.51" width="2.8" height="4.98" rx="1.4"/><rect x="310" y="17.91" width="2.8" height="16.19" rx="1.4"/><rect x="315" y="19.04" width="2.8" height="13.93" rx="1.4"/><rect x="320" y="20.37" width="2.8" height="11.26" rx="1.4"/><rect x="325" y="22.68" width="2.8" height="6.64" rx="1.4"/><rect x="330" y="18.71" width="2.8" height="14.58" rx="1.4"/><rect x="335" y="19.61" width="2.8" height="12.79" rx="1.4"/><rect x="340" y="20.16" width="2.8" height="11.68" rx="1.4"/><rect x="345" y="23.27" width="2.8" height="5.47" rx="1.4"/><rect x="350" y="21.48" width="2.8" height="9.04" rx="1.4"/><rect x="355" y="11.68" width="2.8" height="28.63" rx="1.4"/><rect x="360" y="12.85" width="2.8" height="26.30" rx="1.4"/><rect x="365" y="23.72" width="2.8" height="4.55" rx="1.4"/><rect x="370" y="21.79" width="2.8" height="8.42" rx="1.4"/><rect x="375" y="21.85" width="2.8" height="8.30" rx="1.4"/><rect x="380" y="22.54" width="2.8" height="6.92" rx="1.4"/><rect x="385" y="24.11" width="2.8" height="3.77" rx="1.4"/><rect x="390" y="24.42" width="2.8" height="3.15" rx="1.4"/><rect x="395" y="24.47" width="2.8" height="3.05" rx="1.4"/></g></svg>