<svg xmlns="http://www.w3.org/2000/svg" viewBox="0 0 400 52"><g fill="#e6612d"><rect x="0" y="24.50" width="2.8" height="3.00" rx="1.4"/><rect x="5" y="24.50" width="2.8" height="3.00" rx="1.4"/><rect x="10" y="24.50" width="2.8" height="3.00" rx="1.4"/><rect x="15" y="24.50" width="2.8" height="3.01" rx="1.4"/><rect x="20" y="24.50" width="2.8" height="3.01" rx="1.4"/><rect x="25" y="20.78" width="2.8" height="10.43" rx="1.4"/><rect x="30" y="7.71" width="2.8" height="36.57" rx="1.4"/><rect x="35" y="4.50" width="2.8" height="43.01" rx="1.4"/><rect x="40" y="15.81" width="2.8" height="20.39" rx="1.4"/><rect x="45" y="15.67" width="2.8" height="20.66" rx="1.4"/><rect x="50" y="14.91" width="2.8" height="22.18" rx="1.4"/><rect x="55" y="6.46" width="2.8" height="39.08" rx="1.4"/><rect x="60" y="8.72" width="2.8" height="34.56" rx="1.4"/><rect x="65" y="24.17" width="2.8" height="3.66" rx="1.4"/><rect x="70" y="16.01" width="2.8" height="19.98" rx="1.4"/><rect x="75" y="11.07" width="2.8" height="29.86" rx="1.4"/><rect x="80" y="5.62" width="2.8" height="40.76" rx="1.4"/><rect x="85" y="18.41" width="2.8" height="15.18" rx="1.4"/><rect x="90" y="22.20" width="2.8" height="7.59" rx="1.4"/><rect x="95" y="9.65" width="2.8" height="32.71" rx="1.4"/><rect x="100" y="7.99" width="2.8" height="36.03" rx="1.4"/><rect x="105" y="11.18" width="2.8" height="29.64" rx="1.4"/><rect x="110" y="21.69" width="2.8" height="8.62" rx="1.4"/><rect x="115" y="11.55" width="2.8" height="28.91" rx="1.4"/><rect x="120" y="9.53" width="2.8" height="32.95" rx="1.4"/><rect x="125" y="20.32" width="2.8" height="11.36" rx="1.4"/><rect x="130" y="22.06" width="2.8" height="7.87" rx="1.4"/><rect x="135" y="24.46" width="2.8" height="3.09" rx="1.4"/><rect x="140" y="24.50" width="2.8" height="3.01" rx="1.4"/><rect x="145" y="3.92" width="2.8" height="44.15" rx="1.4"/><rect x="150" y="4.61" width="2.8" height="42.79" rx="1.4"/><rect x="155" y="16.32" width="2.8" height="19.36" rx="1.4"/><rect x="160" y="19.47" width="2.8" height="13.06" rx="1.4"/><rect x="165" y="2.25" width="2.8" height="47.50" rx="1.4"/><rect x="170" y="10.79" width="2.8" height="30.42" rx="1.4"/><rect x="175" y="21.28" width="2.8" height="9.44" rx="1.4"/><rect x="180" y="22.34" width="2.8" height="7.32" rx="1.4"/><rect x="185" y="2.00" width="2.8" height="48.00" rx="1.4"/><rect x="190" y="3.24" width="2.8" height="45.53" rx="1.4"/><rect x="195" y="9.44" width="2.8" height="33.12" rx="1.4"/><rect x="200" y="20.97" width="2.8" height="10.06" rx="1.4"/><rect x="205" y="22.18" width="2.8" height="7.65" rx="1.4"/><rect x="210" y="10.67" width="2.8" height="30.66" rx="1.4"/><rect x="215" y="9.84" width="2.8" height="32.32" rx="1.4"/><rect x="220" y="15.78" width="2.8" height="20.45" rx="1.4"/><rect x="225" y="7.72" width="2.8" height="36.56" rx="1.4"/><rect x="230" y="7.43" width="2.8" height="37.13" rx="1.4"/><rect x="235" y="21.00" width="2.8" height="9.99" rx="1.4"/><rect x="240" y="21.62" width="2.8" height="8.76" rx="1.4"/><rect x="245" y="13.33" width="2.8" height="25.33" rx="1.4"/><rect x="250" y="14.38" width="2.8" height="23.23" rx="1.4"/><rect x="255" y="21.01" width="2.8" height="9.97" rx="1.4"/><rect x="260" y="9.81" width="2.8" height="32.38" rx="1.4"/><rect x="265" y="9.64" width="2.8" height="32.73" rx="1.4"/><rect x="270" y="17.71" width="2.8" height="16.58" rx="1.4"/><rect x="275" y="14.13" width="2.8" height="23.74" rx="1.4"/><rect x="280" y="17.19" width="2.8" height="17.62" rx="1.4"/><rect x="285" y="21.96" width="2.8" height="8.07" rx="1.4"/><rect x="290" y="22.68" width="2.8" height="6.64" rx="1.4"/><rect x="295" y="18.28" width="2.8" height="15.45" rx="1.4"/><rect x="300" y="21.46" width="2.8" height="9.08" rx="1.4"/><rect x="305" y="23.68" width="2.8" height="4.63" rx="1.4"/><rect x="310" y="24.49" width="2.8" height="3.02" rx="1.4"/><rect x="315" y="24.50" width="2.8" height="3.01" rx="1.4"/><rect x="320" y="24.50" width="2.8" height="3.01" rx="1.4"/><rect x="325" y="24.50" width="2.8" height="3.00" rx="1.4"/><rect x="330" y="24.50" width="2.8" height="3.00" rx="1.4"/><rect x="335" y="24.50" width="2.8" height="3.00" rx="1.4"/><rect x="340" y="24.50" width="2.8" height="3.00" rx="1.4"/><rect x="345" y="24.50" width="2.8" height="3.00" rx="1.4"/><rect x="350" y="24.50" width="2.8" height="3.00" rx="1.4"/><rect x="355" y="24.50" width="2.8" height="3.00" rx="1.4"/><rect x="360" y="24.50" width="2.8" height="3.00" rx="1.4"/><rect x="365" y="24.50" width="2.8" height="3.00" rx="1.4"/><rect x="370" y="24.50" width="2.8" height="3.00" rx="1.4"/><rect x="375" y="24.50" width="2.8" height="3.00" rx="1.4"/><rect x="380" y="24.50" width="2.8" height="3.00" rx="1.4"/><rect x="385" y="24.50" width="2.8" height="3.00" rx="1.4"/><rect x="390" y="24.50" width="2.8" height="3.00" rx="1.4"/><rect x="395" y="24.50" width="2.8" height="3.00" rx="1.4"/></g></svg>