<svg xmlns="http://www.w3.org/2000/svg" viewBox="0 0 400 52"><g fill="#e6612d"><rect x="0" y="24.50" width="2.8" height="3.00" rx="1.4"/><rect x="5" y="24.50" width="2.8" height="3.00" rx="1.4"/><rect x="10" y="24.50" width="2.8" height="3.01" rx="1.4"/><rect x="15" y="24.49" width="2.8" height="3.03" rx="1.4"/><rect x="20" y="7.95" width="2.8" height="36.10" rx="1.4"/><rect x="25" y="18.60" width="2.8" height="14.80" rx="1.4"/><rect x="30" y="20.49" width="2.8" height="11.02" rx="1.4"/><rect x="35" y="13.50" width="2.8" height="25.00" rx="1.4"/><rect x="40" y="10.57" width="2.8" height="30.86" rx="1.4"/><rect x="45" y="9.42" width="2.8" height="33.15" rx="1.4"/><rect x="50" y="6.05" width="2.8" height="39.89" rx="1.4"/><rect x="55" y="15.85" width="2.8" height="20.30" rx="1.4"/><rect x="60" y="15.46" width="2.8" height="21.09" rx="1.4"/><rect x="65" y="22.42" width="2.8" height="7.16" rx="1.4"/><rect x="70" y="7.38" width="2.8" height="37.23" rx="1.4"/><rect x="75" y="5.58" width="2.8" height="40.84" rx="1.4"/><rect x="80" y="8.00" width="2.8" height="36.00" rx="1.4"/><rect x="85" y="21.86" width="2.8" height="8.29" rx="1.4"/><rect x="90" y="24.39" width="2.8" height="3.23" rx="1.4"/><rect x="95" y="13.37" width="2.8" height="25.25" rx="1.4"/><rect x="100" y="13.06" width="2.8" height="25.88" rx="1.4"/><rect x="105" y="20.06" width="2.8" height="11.87" rx="1.4"/><rect x="110" y="12.35" width="2.8" height="27.30" rx="1.4"/><rect x="115" y="13.43" width="2.8" height="25.14" rx="1.4"/><rect x="120" y="17.76" width="2.8" height="16.47" rx="1.4"/><rect x="125" y="15.83" width="2.8" height="20.34" rx="1.4"/><rect x="130" y="13.24" width="2.8" height="25.52" rx="1.4"/><rect x="135" y="19.86" width="2.8" height="12.27" rx="1.4"/><rect x="140" y="12.53" width="2.8" height="26.93" rx="1.4"/><rect x="145" y="11.63" width="2.8" height="28.74" rx="1.4"/><rect x="150" y="24.21" width="2.8" height="3.58" rx="1.4"/><rect x="155" y="9.29" width="2.8" height="33.42" rx="1.4"/><rect x="160" y="9.52" width="2.8" height="32.97" rx="1.4"/><rect x="165" y="21.92" width="2.8" height="8.16" rx="1.4"/><rect x="170" y="8.09" width="2.8" height="35.82" rx="1.4"/><rect x="175" y="2.00" width="2.8" height="48.00" rx="1.4"/><rect x="180" y="4.41" width="2.8" height="43.18" rx="1.4"/><rect x="185" y="13.06" width="2.8" height="25.88" rx="1.4"/><rect x="190" y="11.21" width="2.8" height="29.57" rx="1.4"/><rect x="195" y="18.22" width="2.8" height="15.56" rx="1.4"/><rect x="200" y="16.99" width="2.8" height="18.01" rx="1.4"/><rect x="205" y="6.34" width="2.8" height="39.33" rx="1.4"/><rect x="210" y="4.98" width="2.8" height="42.04" rx="1.4"/><rect x="215" y="14.22" width="2.8" height="23.57" rx="1.4"/><rect x="220" y="24.19" width="2.8" height="3.63" rx="1.4"/><rect x="225" y="21.11" width="2.8" height="9.78" rx="1.4"/><rect x="230" y="12.76" width="2.8" height="26.48" rx="1.4"/><rect x="235" y="7.19" width="2.8" height="37.61" rx="1.4"/><rect x="240" y="10.19" width="2.8" height="31.62" rx="1.4"/><rect x="245" y="14.27" width="2.8" height="23.46" rx="1.4"/><rect x="250" y="15.13" width="2.8" height="21.75" rx="1.4"/><rect x="255" y="22.41" width="2.8" height="7.17" rx="1.4"/><rect x="260" y="13.72" width="2.8" height="24.57" rx="1.4"/><rect x="265" y="16.93" width="2.8" height="18.15" rx="1.4"/><rect x="270" y="20.87" width="2.8" height="10.26" rx="1.4"/><rect x="275" y="17.88" width="2.8" height="16.23" rx="1.4"/><rect x="280" y="17.14" width="2.8" height="17.73" rx="1.4"/><rect x="285" y="14.32" width="2.8" height="23.36" rx="1.4"/><rect x="290" y="14.45" width="2.8" height="23.10" rx="1.4"/><rect x="295" y="18.08" width="2.8" height="15.83" rx="1.4"/><rect x="300" y="23.57" width="2.8" height="4.87" rx="1.4"/><rect x="305" y="20.13" width="2.8" height="11.73" rx="1.4"/><rect x="310" y="21.56" width="2.8" height="8.87" rx="1.4"/><rect x="315" y="24.31" width="2.8" height="3.39" rx="1.4"/><rect x="320" y="24.50" width="2.8" height="3.01" rx="1.4"/><rect x="325" y="24.50" width="2.8" height="3.01" rx="1.4"/><rect x="330" y="24.50" width="2.8" height="3.00" rx="1.4"/><rect x="335" y="24.50" width="2.8" height="3.00" rx="1.4"/><rect x="340" y="24.50" width="2.8" height="3.00" rx="1.4"/><rect x="345" y="24.50" width="2.8" height="3.00" rx="1.4"/><rect x="350" y="24.50" width="2.8" height="3.00" rx="1.4"/><rect x="355" y="24.50" width="2.8" height="3.00" rx="1.4"/><rect x="360" y="24.50" width="2.8" height="3.00" rx="1.4"/><rect x="365" y="24.50" width="2.8" height="3.00" rx="1.4"/><rect x="370" y="24.50" width="2.8" height="3.00" rx="1.4"/><rect x="375" y="24.50" width="2.8" height="3.00" rx="1.4"/><rect x="380" y="24.50" width="2.8" height="3.00" rx="1.4"/><rect x="385" y="24.50" width="2.8" height="3.00" rx="1.4"/><rect x="390" y="24.50" width="2.8" height="3.00" rx="1.4"/><rect x="395" y="24.50" width="2.8" height="3.00" rx="1.4"/></g></svg>